HIERARCHY
ROOT Hips
{
  OFFSET 0.0000 0.0000 0.0000
  CHANNELS 6 Xposition Yposition Zposition Zrotation Xrotation Yrotation
  JOINT LeftHip
  {
    OFFSET 5.5000 0.0000 -0.0000
    CHANNELS 3 Zrotation Xrotation Yrotation
    JOINT LeftKnee
    {
      OFFSET -0.0000 -17.5000 -0.0000
      CHANNELS 3 Zrotation Xrotation Yrotation
      JOINT LeftAnkle
      {
        OFFSET 0.0000 -17.0000 -0.0000
        CHANNELS 3 Zrotation Xrotation Yrotation
        End Site
        {
            OFFSET 0.0000 -4.7000 -2.0000
        }
      }
    }
  }
  JOINT RightHip
  {
    OFFSET -5.5000 -0.0000 0.0000
    CHANNELS 3 Zrotation Xrotation Yrotation
    JOINT RightKnee
    {
      OFFSET 0.0000 -17.5000 0.0000
      CHANNELS 3 Zrotation Xrotation Yrotation
      JOINT RightAnkle
      {
        OFFSET 0.0000 -17.0000 0.0000
        CHANNELS 3 Zrotation Xrotation Yrotation
        End Site
        {
            OFFSET 0.0000 -4.7000 -2.0000
        }
      }
    }
  }
  JOINT Chest
  {
    OFFSET 0.0000 3.0000 -1.0000
    CHANNELS 3 Zrotation Xrotation Yrotation
    JOINT LeftCollar
    {
      OFFSET 0.0000 18.0000 1.0000
      CHANNELS 3 Zrotation Xrotation Yrotation
      JOINT LeftShoulder
      {
        OFFSET 6.5000 0.0000 0.0000
        CHANNELS 3 Zrotation Xrotation Yrotation
        JOINT LeftElbow
        {
          OFFSET 0.0000 -11.0000 0.0000
          CHANNELS 3 Zrotation Xrotation Yrotation
          JOINT LeftWrist
          {
            OFFSET 0.0000 -10.5000 -0.0000
            CHANNELS 3 Zrotation Xrotation Yrotation
            End Site
            {
                OFFSET -0.0000 -6.0000 0.0000
            }
          }
        }
      }
    }
    JOINT RightCollar
    {
      OFFSET 0.0000 18.0000 1.0000
      CHANNELS 3 Zrotation Xrotation Yrotation
      JOINT RightShoulder
      {
        OFFSET -6.5000 -0.0000 0.0000
        CHANNELS 3 Zrotation Xrotation Yrotation
        JOINT RightElbow
        {
          OFFSET 0.0000 -11.0000 -0.0000
          CHANNELS 3 Zrotation Xrotation Yrotation
          JOINT RightWrist
          {
            OFFSET 0.0000 -10.5000 0.0000
            CHANNELS 3 Zrotation Xrotation Yrotation
            End Site
            {
                OFFSET 0.0000 -6.0000 -0.0000
            }
          }
        }
      }
    }
    JOINT Neck
    {
      OFFSET 0.0000 18.0000 1.0000
      CHANNELS 3 Zrotation Xrotation Yrotation
      JOINT Head
      {
        OFFSET 0.0000 3.0000 0.0000
        CHANNELS 3 Zrotation Xrotation Yrotation
        End Site
        {
            OFFSET 0.0000 7.0000 0.0000
        }
      }
    }
  }
}
MOTION
Frames:	26
Frame Time:	0.033333
-2.2979 38.9850 2.1552 1.09 -7.99 -1.33 1.31 -6.78 -2.94 -0.00 36.20 4.14 -5.82 -13.06 -6.51 0.75 -12.37 -4.11 -0.00 49.70 -3.98 8.52 -3.40 5.80 0.52 11.68 -4.66 0.00 0.00 0.00 21.05 -22.04 -33.20 0.00 -60.92 -0.03 -49.13 16.92 -2.14 0.00 0.00 0.00 -20.36 -30.68 46.93 0.00 -33.99 -11.61 32.75 -12.65 50.24 0.00 0.00 0.00 3.03 -4.90 5.17 
-2.5856 39.0821 1.6377 1.03 -7.73 -1.90 2.38 -7.38 -1.13 0.00 35.27 6.19 -6.53 -11.43 -9.93 1.45 -9.65 -3.92 0.00 43.55 -2.82 6.81 -2.36 4.74 0.22 11.09 -3.48 0.00 0.00 0.00 23.41 -25.71 -31.50 -0.00 -70.18 -1.02 -50.68 16.35 6.96 0.00 0.00 0.00 -19.77 -26.10 43.88 0.01 -22.50 -12.34 36.29 -13.82 57.84 0.00 0.00 0.00 4.31 -3.63 6.02 
-2.7494 39.0972 1.1325 1.05 -7.82 -2.42 3.07 -7.57 0.57 0.00 34.26 7.31 -6.71 -9.87 -12.20 1.98 -8.13 -3.53 0.00 39.76 -1.91 5.22 -2.19 3.83 0.31 10.18 -2.55 0.00 0.00 0.00 25.14 -29.84 -30.40 -0.02 -78.90 -1.49 -50.69 15.89 15.55 0.00 0.00 0.00 -20.60 -20.70 40.14 0.00 -12.77 -12.10 39.04 -14.51 64.23 0.00 0.00 0.00 5.22 -2.70 5.79 
-2.6755 39.1387 1.0282 1.17 -8.22 -2.86 3.05 -7.22 1.62 0.00 34.15 7.39 -6.49 -9.66 -12.79 2.05 -6.99 -3.02 0.00 38.28 -1.39 3.95 -3.45 3.37 0.71 9.21 -1.87 0.00 0.00 0.00 25.86 -33.78 -29.80 -0.01 -86.40 -1.38 -48.94 16.21 22.10 0.00 0.00 0.00 -22.31 -14.62 36.76 0.00 -5.40 -11.13 40.25 -15.03 68.79 0.00 0.00 0.00 5.80 -1.57 4.89 
-2.5412 39.2514 0.8359 1.44 -8.80 -3.29 2.53 -6.75 1.88 -0.00 33.80 6.96 -6.17 -9.26 -12.02 1.93 -6.31 -2.55 0.00 37.51 -1.17 2.56 -4.57 3.08 1.34 8.40 -1.42 0.00 0.00 0.00 25.91 -37.49 -29.48 179.98 -87.07 178.77 -45.90 17.00 26.76 0.00 0.00 0.00 -24.43 -7.86 34.08 -0.00 -0.25 -9.94 40.00 -15.58 71.80 0.00 0.00 0.00 6.35 0.55 3.50 
-2.3779 39.4465 0.4540 1.92 -9.54 -3.77 1.64 -7.36 1.51 -0.00 35.07 6.58 -6.21 -8.97 -10.48 1.57 -5.81 -2.08 0.00 36.65 -1.08 1.07 -5.04 2.84 1.92 7.83 -1.11 0.00 0.00 0.00 25.37 -41.09 -29.10 -179.99 -81.47 178.82 -42.39 18.28 29.71 0.00 0.00 0.00 -26.81 -1.50 32.33 -0.00 0.92 -8.64 38.31 -14.38 71.67 0.00 0.00 0.00 6.52 2.78 2.11 
-2.3280 39.6044 0.2149 2.60 -10.28 -4.27 0.92 -9.55 1.11 -0.00 39.81 6.42 -7.21 -9.90 -9.25 1.02 -4.95 -1.57 0.00 35.40 -1.04 -0.38 -5.28 2.57 2.14 7.62 -0.73 0.00 0.00 0.00 24.04 -43.84 -28.96 180.00 -77.86 179.24 -38.48 19.48 29.32 0.00 0.00 0.00 -29.38 3.83 31.44 0.00 0.87 -7.32 36.76 -13.16 70.18 0.00 0.00 0.00 5.85 5.46 0.92 
-2.3353 39.6791 0.2396 3.30 -10.87 -4.73 0.63 -13.92 0.85 -0.00 49.30 6.31 -9.39 -12.82 -8.62 0.43 -4.06 -1.01 0.00 34.65 -1.02 -1.63 -5.99 2.32 1.98 7.87 -0.24 0.00 0.00 0.00 22.64 -45.69 -28.89 180.00 -76.04 179.81 -34.60 19.62 26.34 0.00 0.00 0.00 -31.83 7.84 31.34 -0.00 0.77 -5.98 35.76 -12.77 68.06 0.00 0.00 0.00 4.71 7.47 0.25 
-2.3308 39.7035 0.2562 3.76 -11.18 -5.04 0.90 -19.26 0.80 -0.00 60.00 6.13 -12.30 -15.39 -8.59 0.03 -3.72 -0.48 0.00 34.48 -0.99 -2.68 -6.75 2.10 1.55 8.51 0.35 0.00 0.00 0.00 21.74 -46.75 -29.12 180.00 -75.96 -179.41 -30.92 18.23 21.52 0.00 0.00 0.00 -33.58 10.31 31.72 -0.00 -1.04 -4.70 34.83 -11.55 64.35 0.00 0.00 0.00 3.48 8.75 0.07 
-2.3256 39.6923 0.3163 3.98 -11.20 -5.25 1.84 -24.52 1.17 0.00 70.04 6.01 -15.56 -16.86 -9.32 -0.17 -3.70 -0.10 0.00 34.56 -1.04 -3.53 -7.53 2.08 0.85 9.37 0.98 0.00 0.00 0.00 21.38 -47.06 -30.22 180.00 -77.53 -178.31 -27.35 15.45 15.34 0.00 0.00 0.00 -34.30 11.26 31.87 0.00 -4.86 -3.86 33.95 -8.64 59.70 0.00 0.00 0.00 2.62 9.11 0.11 
-2.3200 39.6478 0.5334 4.00 -10.97 -5.36 3.37 -29.10 1.95 -0.00 78.85 5.98 -18.74 -17.47 -10.70 -0.20 -3.71 0.23 -0.00 34.77 -1.02 -4.09 -8.46 2.00 0.03 10.27 1.64 0.00 0.00 0.00 21.64 -46.83 -32.20 179.99 -80.59 -177.15 -24.29 11.43 8.88 0.00 0.00 0.00 -33.85 10.67 31.82 -0.00 -9.78 -3.17 33.16 -4.72 54.27 0.00 0.00 0.00 2.41 8.12 0.26 
-2.3261 39.5591 0.9955 3.84 -10.41 -5.38 4.96 -32.04 2.62 -0.00 85.00 5.76 -21.39 -17.47 -11.82 -0.09 -3.63 0.38 -0.00 35.02 -1.07 -4.42 -9.65 2.14 -0.82 11.28 2.23 0.00 0.00 0.00 22.31 -45.62 -35.63 -180.00 -86.03 -175.91 -21.88 5.65 1.72 0.00 0.00 0.00 -32.15 8.34 32.07 -0.00 -16.75 -2.11 32.15 0.11 46.97 0.00 0.00 0.00 2.96 6.09 0.36 
-2.3567 39.4103 1.6042 3.54 -9.63 -5.40 5.92 -32.56 2.68 0.03 87.13 5.13 -23.10 -17.00 -11.87 0.10 -3.59 0.32 -0.00 35.44 -1.23 -4.54 -11.05 2.52 -1.50 12.11 2.58 0.00 0.00 0.00 23.29 -44.09 -39.43 0.01 -87.13 5.03 -20.99 -0.52 -4.61 0.00 0.00 0.00 -29.81 4.17 32.79 -0.01 -25.05 -0.37 31.61 5.47 38.28 0.00 0.00 0.00 4.11 2.92 0.42 
-2.2383 39.2349 2.3072 3.16 -8.79 -5.38 5.84 -30.59 2.61 0.02 85.14 4.41 -23.16 -16.51 -10.83 0.15 -3.64 0.33 0.00 36.25 -1.33 -4.31 -12.78 2.80 -1.96 12.56 2.85 0.00 0.00 0.00 24.19 -42.22 -42.78 0.00 -79.74 6.00 -22.22 -5.88 -10.49 0.00 0.00 0.00 -27.74 -1.57 34.46 -0.00 -33.71 2.06 32.38 10.23 28.26 0.00 0.00 0.00 5.28 -0.19 0.67 
-1.8184 39.0051 2.8466 2.87 -8.08 -5.16 4.70 -26.95 3.07 0.00 79.11 3.84 -20.92 -15.20 -8.89 -0.23 -4.13 0.70 -0.00 37.62 -1.43 -3.49 -14.45 2.82 -2.02 12.54 3.02 0.00 0.00 0.00 23.61 -40.16 -46.21 0.00 -72.01 7.06 -25.25 -9.26 -16.37 0.00 0.00 0.00 -26.76 -7.95 36.17 0.00 -41.77 4.42 34.41 13.59 18.70 0.00 0.00 0.00 5.40 -2.96 0.33 
-1.3243 38.9269 2.9224 2.69 -7.49 -4.77 3.06 -22.65 3.81 0.01 69.60 3.37 -17.33 -12.01 -6.55 -0.75 -5.71 0.98 0.00 39.92 -1.98 -2.47 -15.81 3.26 -1.81 12.26 2.95 0.00 0.00 0.00 21.63 -37.81 -49.19 -0.00 -63.23 8.06 -29.80 -10.88 -23.09 0.00 0.00 0.00 -26.92 -14.54 37.45 0.01 -50.04 6.28 36.98 15.84 10.05 0.00 0.00 0.00 4.48 -5.09 -0.71 
-0.9555 38.9089 2.7096 2.59 -7.05 -4.36 1.37 -17.24 4.14 0.00 57.00 2.72 -13.89 -7.35 -4.22 -1.24 -7.12 0.70 -0.00 41.06 -3.04 -1.56 -15.89 4.64 -1.43 11.83 2.41 0.00 0.00 0.00 18.97 -35.55 -51.65 -0.00 -54.29 8.69 -34.15 -10.65 -29.32 0.00 0.00 0.00 -27.93 -20.71 37.76 0.01 -57.99 7.17 39.30 17.12 3.79 0.00 0.00 0.00 3.04 -6.51 -2.26 
-0.5255 38.8983 2.3507 2.52 -6.81 -3.92 0.05 -13.57 4.14 0.00 47.88 2.02 -11.19 -4.50 -2.91 -1.96 -8.94 0.11 0.00 42.62 -4.19 -0.48 -15.36 6.35 -1.05 11.17 1.59 0.00 0.00 0.00 16.18 -33.43 -53.16 0.00 -45.59 9.08 -38.17 -8.81 -34.76 0.00 0.00 0.00 -29.78 -26.40 37.39 0.01 -64.98 7.38 40.98 16.97 -0.74 0.00 0.00 0.00 1.23 -7.53 -3.64 
0.2452 38.9433 1.9335 2.39 -6.96 -3.44 -1.51 -11.34 3.97 -0.00 42.13 1.27 -8.47 -3.33 -1.93 -3.33 -9.65 -0.55 0.00 42.87 -5.35 1.07 -14.66 8.49 -0.90 10.12 0.81 0.00 0.00 0.00 13.65 -31.13 -53.18 -0.00 -36.77 9.35 -42.29 -5.73 -40.17 0.00 0.00 0.00 -32.01 -31.78 37.03 0.01 -71.28 6.99 41.64 15.99 -4.79 0.00 0.00 0.00 -0.95 -8.07 -4.31 
1.2082 39.0368 1.7334 2.10 -7.37 -2.95 -3.11 -9.43 3.81 -0.00 38.31 0.80 -5.73 -3.28 -1.51 -4.79 -9.23 -0.83 -0.00 42.16 -5.78 2.80 -13.69 9.65 -1.17 9.07 0.23 0.00 0.00 0.00 11.67 -27.98 -52.23 -0.00 -28.27 9.22 -45.12 -1.95 -45.95 0.00 0.00 0.00 -33.59 -36.15 37.64 0.01 -76.62 5.75 39.87 14.98 -7.24 0.00 0.00 0.00 -3.16 -7.21 -4.30 
2.1679 39.0746 1.7584 1.64 -7.91 -2.43 -4.43 -7.57 3.78 -0.00 35.58 0.73 -3.11 -3.82 -1.74 -5.80 -7.87 -0.42 0.00 40.61 -5.45 4.42 -12.69 9.26 -1.80 8.33 -0.10 0.00 0.00 0.00 10.90 -24.16 -50.64 -0.00 -20.94 8.60 -46.12 1.58 -51.62 0.00 0.00 0.00 -33.86 -39.65 39.18 -0.01 -81.23 4.08 36.25 14.64 -7.99 0.00 0.00 0.00 -4.94 -5.38 -3.65 
2.6355 39.1226 1.8386 1.05 -8.53 -1.89 -4.76 -6.45 3.65 0.00 34.73 0.82 -1.42 -5.01 -2.31 -5.67 -7.52 0.25 0.00 41.25 -4.94 5.42 -12.64 7.95 -2.36 7.82 -0.49 0.00 0.00 0.00 11.36 -20.58 -49.54 0.00 -15.45 7.52 -45.92 3.78 -55.11 0.00 0.00 0.00 -33.30 -42.41 40.34 -0.01 -84.76 2.61 32.77 14.22 -7.05 0.00 0.00 0.00 -5.84 -3.53 -3.43 
2.5903 39.1969 1.9216 0.38 -9.18 -1.37 -4.19 -5.80 3.26 -0.00 34.84 0.89 -0.66 -6.29 -2.76 -4.49 -9.06 0.86 0.00 45.17 -4.40 5.93 -13.61 6.17 -2.63 7.57 -0.99 0.00 0.00 0.00 12.56 -17.38 -48.50 0.00 -11.85 6.70 -45.46 5.57 -57.13 0.00 0.00 0.00 -31.93 -44.50 41.51 -0.02 -87.15 1.23 29.69 13.65 -4.72 0.00 0.00 0.00 -5.83 -1.82 -3.29 
2.5304 39.2424 2.0623 -0.23 -9.69 -0.92 -3.67 -5.13 2.78 -0.00 34.87 0.91 -0.05 -7.35 -2.90 -3.33 -12.65 1.25 -0.00 52.24 -4.04 6.95 -15.20 4.95 -2.51 7.72 -1.57 0.00 0.00 0.00 14.11 -14.63 -47.52 0.00 -10.01 6.16 -45.02 7.03 -58.06 0.00 0.00 0.00 -29.94 -45.86 42.76 -0.04 -88.30 -0.10 27.19 12.78 -0.95 0.00 0.00 0.00 -5.08 -0.26 -3.12 
2.4578 39.2619 2.1345 -0.65 -10.01 -0.61 -3.38 -4.79 2.11 0.00 34.96 0.70 0.47 -8.17 -2.38 -2.49 -17.46 1.32 -0.00 60.40 -3.88 8.45 -16.24 4.44 -2.01 8.21 -2.30 0.00 0.00 0.00 15.61 -12.82 -46.83 0.00 -10.26 5.65 -44.95 8.26 -57.15 0.00 0.00 0.00 -28.00 -46.56 43.65 -0.03 -88.14 -1.32 25.72 11.23 3.85 0.00 0.00 0.00 -3.87 0.28 -3.11 
2.4315 39.2614 2.1435 -0.79 -10.09 -0.46 -3.49 -4.61 1.25 0.00 34.81 0.31 0.95 -8.73 -1.30 -2.27 -22.70 0.97 -0.00 68.24 -3.98 10.35 -16.24 4.81 -1.15 8.90 -3.12 0.00 0.00 0.00 16.95 -12.08 -46.33 0.00 -12.86 5.04 -45.56 9.30 -54.02 0.00 0.00 0.00 -26.48 -46.78 44.33 -0.01 -86.76 -2.35 25.11 8.97 9.08 0.00 0.00 0.00 -2.43 -0.16 -2.97 
